<?xml version="1.0" encoding="utf-8"?>
<!-- Generator: Adobe Illustrator 23.0.2, SVG Export Plug-In . SVG Version: 6.00 Build 0)  -->
<svg version="1.1" id="Layer_1" xmlns="http://www.w3.org/2000/svg" xmlns:xlink="http://www.w3.org/1999/xlink" x="0px" y="0px"
	 viewBox="0 0 64 64" style="enable-background:new 0 0 64 64;" xml:space="preserve">
<style type="text/css">
	.st0{fill:none;stroke:#000000;stroke-width:5;}
</style>
<g>
	<g>
		<path d="M15.7,30.4c-0.2,0.3-0.3,0.6-0.5,0.8c-0.4,0.7-0.5,1.5,0.1,2.2c0.1,0.1,0.2,0.4,0.2,0.6c0,1,0,1.9,0,2.9
			c0,0.1-0.1,0.3-0.2,0.3c-0.1,0-0.2,0-0.3-0.1c-0.4-0.2-0.7-0.5-1.1-0.7c-1-0.6-1.7-1.5-2.1-2.5c-0.4-1-0.4-2.2,0-3.2
			c0.8-2,2.2-3.5,4.1-4.5c0.5-0.3,1.2-0.4,1.8-0.4c1.2,0,2.4,0,3.6,0c1.5,0,2.9-0.1,4.4,0c1.4,0,2,0.6,2.5,1.9
			c0.4,1.1,0.2,2.3,0.3,3.4c0,0.9-0.1,1.8,0.4,2.7c0.3,0.5,0.7,0.9,1.3,0.9c0.7,0.1,1.5,0.1,2.2,0c0.7-0.1,1.7,1.3,1.4,2
			c-0.4,0.9-1,1.4-2,1.4c-1.6,0-3.2-0.3-4.6-1.2c-0.2-0.2-0.4-0.1-0.4,0.2c0,1.7,0.1,3.5,0.1,5.2c0,2.6,0,5.3,0,7.9
			c0,3.1,0,6.1,0,9.2c0,0.7,0.1,1.4,0,2.1c-0.1,1.1-0.9,1.8-1.9,2.1c-0.8,0.3-1.6-0.1-2.2-0.6c-0.7-0.6-0.9-1.3-0.9-2.2
			c0-5,0-10,0-15c0-0.9,0-1.7,0-2.6c0-0.3,0-0.5-0.4-0.6c-0.4,0-0.5,0.2-0.5,0.5c0,1.9,0,3.8,0,5.8c0,4,0,8.1,0,12.1
			c0,1.4-1.4,2.8-2.8,2.6c-1.1-0.1-2.3-1.3-2.3-2.4c0-7.4,0-14.7,0-22.1c0-2.6,0-5.1,0-7.7c0-0.4,0-0.8,0-1.2
			C15.8,30.5,15.7,30.5,15.7,30.4"/>
		<path d="M22.1,25.5c-0.7-0.1-1.4,0.1-2.2-0.3c-0.8-0.5-1.4-1.1-1.8-1.9c-0.4-0.7-0.5-1.4-0.6-2.2c0-1.9,1.2-3.7,3-4.3
			c2.2-0.7,3.9-0.2,5.3,1.8c1.8,2.6,0.4,5.8-2.1,6.8C23.3,25.6,22.6,25.5,22.1,25.5"/>
		<path d="M32.2,34.4c-0.6,0-1.1,0-1.7,0c-0.8,0-1.5-0.7-1.6-1.6c0-1-0.1-2-0.1-3.1c0-0.3,0.1-0.5,0.4-0.4c0.4,0.1,0.5-0.1,0.6-0.4
			c0.4-1.2,0.8-2.4,1.2-3.6c0.5-1.4,0.9-2.8,1.4-4.2c0.6-2,1.3-4,1.9-6c0-0.1,0.2-0.4,0.4-0.3c0.3,0.1,0.1,0.7,0,0.9
			c-0.7,2.1-1.3,4.1-2,6.2c-0.5,1.5-0.9,3-1.4,4.6c-0.3,1-0.6,1.9-1,2.9c-0.1,0.3,0,0.4,0.2,0.5c1,0.3,2,0.6,3,0.9
			c0.3,0.1,0.3,0.4,0.3,0.6c-0.2,0.6-0.4,1.3-0.6,1.9c-0.1,0.2-0.1,0.3-0.2,0.5C32.9,34.3,32.9,34.3,32.2,34.4"/>
	</g>
	<polygon points="33.5,9.6 34.3,10.4 29.5,15.3 28.6,14.4 	"/>
	<polygon points="27.8,16.2 27.7,14.7 27.7,13.2 29.2,14.8 30.7,16.3 29.2,16.2 	"/>
	<polygon points="35,8.9 35,10.4 35.1,11.8 33.6,10.3 32.1,8.8 33.5,8.9 	"/>
	<g>
		<path d="M38.1,0c-0.4,0-0.8,0.7-0.8,1.5h1.6C38.8,0.7,38.5,0,38.1,0"/>
		<path d="M50.2,0c-0.4,0-0.8,0.7-0.8,1.5H51C51,0.7,50.7,0,50.2,0"/>
		<path d="M53.4,1.5h-6.3c-0.3,0-0.6,0.3-0.6,0.7c0,0.4,0.3,0.7,0.6,0.7h6.3C53.7,3,54,2.6,54,2.2C54,1.8,53.7,1.5,53.4,1.5"/>
		<path d="M41.8,2.2c0-0.4-0.3-0.7-0.6-0.7h-6.3c-0.3,0-0.6,0.3-0.6,0.7c0,0.4,0.3,0.7,0.6,0.7h6.3C41.5,3,41.8,2.6,41.8,2.2"/>
		<path d="M46,10.1h-3.7c-0.1,0-0.2,0.1-0.2,0.2v2.5c0,0.1,0.1,0.2,0.2,0.2H46c0.1,0,0.2-0.1,0.2-0.2v-2.5
			C46.2,10.2,46.1,10.1,46,10.1 M43.6,11.2h-0.9v-0.5h0.9V11.2z M44.9,12.2c-0.4,0-0.7-0.3-0.7-0.7c0-0.4,0.3-0.7,0.7-0.7
			c0.4,0,0.7,0.3,0.7,0.7C45.6,11.9,45.3,12.2,44.9,12.2"/>
		<path d="M47,7.4c1.6,1.6,2.4,3.6,2.4,5.8l0,1.5c0,0.1,0,0.2,0.1,0.3s0.2,0.1,0.3,0.1h0.4c0.2,0,0.4-0.2,0.4-0.4l0-1.5
			c0-2.5-1-4.8-2.7-6.6C47.6,6.7,47.3,6.9,47,7.4"/>
		<path d="M40.4,6.7c-1.7,1.8-2.7,4.1-2.7,6.6v1.5c0,0.2,0.2,0.4,0.4,0.4h0.4c0.1,0,0.2,0,0.3-0.1c0.1-0.1,0.1-0.2,0.1-0.3l0-1.5
			c0-2.2,0.9-4.2,2.4-5.8C41,6.9,40.7,6.7,40.4,6.7"/>
		<path d="M49.5,3.4v1h-0.3c-1.1,0-2.2-0.3-3.2-0.7c-0.6-0.3-1.2-0.4-1.9-0.4c-0.7,0-1.3,0.2-1.9,0.4c-1,0.5-2.1,0.7-3.2,0.7h-0.2
			v-1h-1.6l0,1c0,0.9,0.4,1.6,0.8,1.6c0.2,0,0.5-0.2,0.6-0.6h1.7c0.9,0,2,0.7,2.4,2.5c0.1,0.3,0.4,0.6,0.7,0.6h0v0.4h-0.2
			c0,0-0.1,0-0.1,0.1v0.5h0.3h1.2H45V9c0,0,0-0.1-0.1-0.1h-0.2V8.6h0c0.4,0,0.7-0.2,0.7-0.6C46,6.2,47.1,5.5,48,5.5h1.7
			c0.1,0.3,0.4,0.6,0.6,0.6c0.4,0,0.8-0.7,0.8-1.6l0-1H49.5z"/>
	</g>
</g>
</svg>
