<?xml version="1.0" encoding="utf-8"?>
<!-- Generator: Adobe Illustrator 23.0.2, SVG Export Plug-In . SVG Version: 6.00 Build 0)  -->
<svg version="1.1" id="Layer_1" xmlns="http://www.w3.org/2000/svg" xmlns:xlink="http://www.w3.org/1999/xlink" x="0px" y="0px"
	 viewBox="0 0 64 64" style="enable-background:new 0 0 64 64;" xml:space="preserve">
<style type="text/css">
	.st0{fill:none;stroke:#000000;stroke-width:5;}
</style>
<g>
	<path d="M33.7,38.4h6.5v-2h-6.5V38.4z M33.7,35.7h6.5v-2h-6.5V35.7z M31.3,31.3l5.7-4.5l5.7,4.5v8.4H31.3V31.3z M37,24.3L37,24.3
		L37,24.3l-8.5,6.7l0,0l-0.4,0.3l-0.3,0.2v1.6h1.5v8.6h15.3v-8.6h1.5v-1.6l-0.3-0.2l-0.4-0.3l0,0L37,24.3L37,24.3L37,24.3z"/>
	<g>
		<path d="M49.7,39.3v-0.2v-3.6c0-0.8,0.4-1.4,1.2-1.7c0.1,0,0.1-0.1,0.1-0.1c0.4-0.9,0.7-1.8,1.1-2.8c0.3-0.8,0.8-1.2,1.7-1.2
			c2,0,4,0,6,0c0.9,0,1.4,0.3,1.7,1.2c0.4,0.9,0.7,1.8,1.1,2.8c0,0.1,0.1,0.1,0.2,0.2c0.7,0.2,1.2,0.8,1.2,1.5c0,1.3,0,2.6,0,3.9
			c0,0,0,0,0,0.1h-1.1c0,0.1,0,0.1,0,0.2c0,0.4,0,0.9,0,1.3c-0.1,0.6-0.5,0.9-1.1,0.9c-0.5,0-0.9-0.4-1-0.9c0-0.2,0-0.5,0-0.7
			c0-0.2,0-0.5,0-0.7H53c0,0.2,0,0.4,0,0.6c0,0.2,0,0.5,0,0.7c0,0.6-0.5,1-1.1,1c-0.6,0-1-0.4-1-1c0-0.4,0-0.8,0-1.2
			c0,0,0-0.1,0-0.1H49.7z M52.2,33.8h9.2c0,0,0-0.1,0-0.1c-0.3-0.8-0.6-1.6-0.9-2.4c-0.1-0.4-0.3-0.5-0.7-0.5c-2,0-4,0-6,0
			c-0.4,0-0.6,0.1-0.7,0.5c-0.2,0.4-0.3,0.8-0.4,1.2C52.5,33,52.3,33.4,52.2,33.8 M62.7,36c0-0.6-0.4-1-1-1c-0.6,0-1,0.4-1,1
			c0,0.6,0.4,1,1,1C62.2,37,62.7,36.5,62.7,36 M50.9,35.9c0,0.6,0.4,1,1,1c0.5,0,1-0.4,1-1c0-0.6-0.4-1-1-1
			C51.4,34.9,50.9,35.4,50.9,35.9"/>
		<path d="M17.4,21.9c0,0,0,0.4,0,0.7c3.2-0.4,11.4,0.9,13.5,0.7V23C30.9,23,21.5,21.6,17.4,21.9 M13.9,35.2c-1-0.1-2-0.4-2.9-1
			c-0.2-0.1-0.5-0.3-0.7-0.4c-0.3-0.2-0.5-0.6-0.5-1c0-0.1,0-0.2,0-0.3c0-1.5,0.6-3,1.5-4.2c0.8-0.9,2.1-1.5,4.2-1.5
			s3.4,0.5,4.2,1.5c1,1.2,1.5,2.8,1.5,4.2c0,0.1,0,0.2,0,0.3c0,0.4-0.2,0.8-0.5,1c-0.2,0.1-0.5,0.3-0.7,0.4c-0.9,0.5-1.9,0.9-2.9,1
			C16,35.4,15,35.4,13.9,35.2 M11.3,25.7c0-0.6,0.5-1.2,1.1-1.2c0.6,0,1.1,0.5,1.1,1.2c0,0.6-0.5,1.2-1.1,1.2
			C11.8,26.9,11.3,26.4,11.3,25.7 M18.6,24.6c0.6,0,1.1,0.5,1.1,1.2c0,0.6-0.5,1.2-1.1,1.2c-0.6,0-1.1-0.5-1.1-1.2
			C17.5,25.1,18,24.6,18.6,24.6 M22.6,38.9c-0.2,0-0.4,0-0.6,0.1c0,0,0,0,0,0c-0.5-0.5-1.1-1-1.7-1.3c0,0,0,0-0.1,0
			c1-1,1.6-2.6,1.6-5c0-1.8-0.8-3.9-2.2-5.3c0.5-0.3,0.8-0.9,0.8-1.5c0-1-0.8-1.9-1.7-1.9c-0.5,0-0.9,0.2-1.2,0.6
			c-0.1,0.1-0.1,0.1-0.2,0.1h-0.3c-0.1,0-0.2-0.1-0.2-0.2l-0.1-0.6c0-0.2-0.2-0.3-0.3-0.3h-0.5v0c0-0.1,0.1-0.2,0.2-0.2H16V23
			c0.3,0,0.6,0,0.8-0.1c0.2,0,0.3-0.1,0.3-0.3v-0.9c0-0.1-0.1-0.3-0.3-0.3c-0.3,0-0.6-0.1-0.8-0.1v-0.2h1.1
			c-0.1-0.4-0.8-0.8-1.7-0.8c-0.8,0-1.5,0.3-1.7,0.8h1.2v0.2c-0.3,0-0.6,0-0.8,0.1c-0.2,0-0.3,0.1-0.3,0.3v0.9
			c0,0.1,0.1,0.3,0.3,0.3c0.3,0,0.6,0.1,0.8,0.1v0.5h-0.1c-0.1,0-0.3,0.1-0.3,0.3l-0.1,0.6c0,0.1-0.1,0.2-0.2,0.2h-0.3
			c-0.1,0-0.2,0-0.2-0.1c-0.3-0.4-0.8-0.6-1.2-0.6c-0.9,0-1.7,0.8-1.7,1.9c0,0.6,0.3,1.2,0.8,1.5c-1.4,1.4-2.2,3.5-2.2,5.3
			c0,2.5,0.6,4,1.6,5c0,0,0,0-0.1,0c-0.6,0.3-1.2,0.7-1.7,1.3c0,0,0,0,0,0c-0.2-0.1-0.4-0.1-0.6-0.1c-0.7,0-1.4,0.4-1.4,1.4
			c0,1.4,0.6,1.4,1.4,1.4c0.7,0,1.4,0,1.4-1.4c0-0.3-0.1-0.6-0.2-0.8c0.8-0.7,1.9-0.8,2.6-0.9c1,0.4,2.1,0.6,3.4,0.6
			c1,0,2-0.1,2.8-0.4c0,0,0,0,0,0c0.1,0,0.1,0,0.1-0.1c0,0,0,0,0.1,0c0,0,0.1,0,0.1-0.1c0,0,0.4-0.1,0.7,0c0.6,0.1,1.5,0.3,2.1,0.8
			c-0.1,0.2-0.2,0.5-0.2,0.8c0,1.4,0.6,1.4,1.4,1.4c0.7,0,1.4,0,1.4-1.4C24,39.2,23.4,38.9,22.6,38.9 M13.5,22.5c0-0.3,0-0.7,0-0.7
			C9.4,21.6,0,23,0,23v0.2C2.1,23.4,10.3,22.2,13.5,22.5"/>
	</g>
</g>
</svg>
