<?xml version="1.0" encoding="utf-8"?>
<!-- Generator: Adobe Illustrator 23.0.2, SVG Export Plug-In . SVG Version: 6.00 Build 0)  -->
<svg version="1.1" id="Layer_1" xmlns="http://www.w3.org/2000/svg" xmlns:xlink="http://www.w3.org/1999/xlink" x="0px" y="0px"
	 viewBox="0 0 64 64" style="enable-background:new 0 0 64 64;" xml:space="preserve">
<style type="text/css">
	.st0{fill:none;stroke:#000000;stroke-width:5;}
</style>
<g>
	<path class="st0" d="M33,47.4c9.6,0,17.3-7.5,17.3-16.8S42.6,13.8,33,13.8s-17.3,7.5-17.3,16.8S23.4,47.4,33,47.4z"/>
	<line class="st0" x1="44.8" y1="19.3" x2="21.2" y2="42"/>
	<path d="M31.6,28.1C29.4,28,29,27.9,29,26.5c0-1.8,0.9-1.9,2.6-1.9h2.6c1.8,0,2.5,0.2,2.5,1.9h4.8c0-5.4-3-5.8-7.2-6.1v-2.2h-2.6
		v2.2c-5.7,0-7.5,1-7.5,6.1c0,4,0.9,5.3,7.5,5.8l2.6,0.2c2.6,0.2,3,0.5,3,2c0,2.1-1,2.1-3,2.1h-2.6c-2,0-2.9-0.1-2.9-2.6h-4.9
		c0,5.8,2.8,6.7,7.8,6.7V43h2.6v-2.4c5.7,0,7.9-1.5,7.9-6.4c0-5.2-3-5.4-7.9-5.8L31.6,28.1z"/>
</g>
</svg>
