<?xml version="1.0" encoding="utf-8"?>
<!-- Generator: Adobe Illustrator 23.0.2, SVG Export Plug-In . SVG Version: 6.00 Build 0)  -->
<svg version="1.1" id="Layer_1" xmlns="http://www.w3.org/2000/svg" xmlns:xlink="http://www.w3.org/1999/xlink" x="0px" y="0px"
	 viewBox="0 0 64 64" style="enable-background:new 0 0 64 64;" xml:space="preserve">
<style type="text/css">
	.st0{fill:none;stroke:#000000;stroke-width:5;}
</style>
<g>
	<g>
		<path d="M35.1,58.8l0.9-0.1c0,0.2,0.1,0.4,0.2,0.6c0.1,0.1,0.3,0.2,0.5,0.2c0.2,0,0.4-0.1,0.5-0.2c0.1-0.2,0.2-0.4,0.2-0.6
			c0-0.2-0.1-0.4-0.2-0.6c-0.1-0.1-0.3-0.2-0.5-0.2c-0.1,0-0.3,0-0.4,0.1l0.1-0.8c0.3,0,0.4-0.1,0.6-0.2c0.1-0.1,0.2-0.3,0.2-0.5
			c0-0.2,0-0.3-0.1-0.4c-0.1-0.1-0.2-0.2-0.4-0.2c-0.2,0-0.3,0.1-0.4,0.2c-0.1,0.1-0.2,0.3-0.2,0.5l-0.9-0.2
			c0.1-0.3,0.2-0.6,0.3-0.7c0.1-0.2,0.3-0.3,0.5-0.4c0.2-0.1,0.5-0.2,0.7-0.2c0.5,0,0.8,0.2,1.1,0.5c0.2,0.2,0.3,0.5,0.3,0.8
			c0,0.4-0.2,0.8-0.7,1.1c0.3,0.1,0.5,0.2,0.7,0.4c0.2,0.2,0.3,0.5,0.3,0.8c0,0.4-0.2,0.8-0.5,1.1c-0.3,0.3-0.7,0.5-1.2,0.5
			c-0.4,0-0.8-0.1-1.1-0.4C35.3,59.6,35.1,59.3,35.1,58.8"/>
		<path d="M40.5,55.1c0.5,0,0.8,0.2,1.1,0.5c0.3,0.4,0.5,1.1,0.5,2.1c0,1-0.2,1.6-0.5,2.1c-0.3,0.3-0.6,0.5-1.1,0.5
			c-0.5,0-0.9-0.2-1.1-0.6c-0.3-0.4-0.4-1.1-0.4-2c0-1,0.2-1.6,0.5-2.1C39.6,55.3,40,55.1,40.5,55.1 M40.5,55.9
			c-0.1,0-0.2,0-0.3,0.1c-0.1,0.1-0.2,0.2-0.2,0.4c-0.1,0.3-0.1,0.7-0.1,1.3c0,0.6,0,1,0.1,1.2c0.1,0.2,0.1,0.4,0.2,0.4
			c0.1,0.1,0.2,0.1,0.3,0.1c0.1,0,0.2,0,0.3-0.1c0.1-0.1,0.2-0.2,0.2-0.4c0.1-0.2,0.1-0.7,0.1-1.3c0-0.6,0-1-0.1-1.2
			c-0.1-0.2-0.1-0.4-0.2-0.4C40.7,55.9,40.6,55.9,40.5,55.9"/>
		<path d="M42.8,56.5h0.9V57c0.3-0.4,0.7-0.6,1.1-0.6c0.2,0,0.4,0,0.6,0.1c0.2,0.1,0.3,0.2,0.4,0.4c0.2-0.2,0.3-0.3,0.5-0.4
			c0.2-0.1,0.4-0.1,0.6-0.1c0.3,0,0.5,0.1,0.7,0.2c0.2,0.1,0.3,0.3,0.4,0.5c0.1,0.2,0.1,0.4,0.1,0.8v2.3h-0.9v-2.1
			c0-0.4,0-0.6-0.1-0.7c-0.1-0.1-0.2-0.2-0.4-0.2c-0.1,0-0.3,0-0.4,0.1c-0.1,0.1-0.2,0.2-0.2,0.4c-0.1,0.2-0.1,0.4-0.1,0.8v1.8h-0.9
			v-2c0-0.4,0-0.6,0-0.7c0-0.1-0.1-0.2-0.2-0.2c-0.1-0.1-0.2-0.1-0.3-0.1c-0.1,0-0.3,0-0.4,0.1c-0.1,0.1-0.2,0.2-0.2,0.3
			c0,0.2-0.1,0.4-0.1,0.8v1.8h-0.9V56.5z"/>
		<path d="M15,58.8l0.9-0.1c0,0.2,0.1,0.4,0.2,0.6c0.1,0.1,0.3,0.2,0.5,0.2c0.2,0,0.4-0.1,0.5-0.2c0.1-0.2,0.2-0.4,0.2-0.6
			c0-0.2-0.1-0.4-0.2-0.6c-0.1-0.1-0.3-0.2-0.5-0.2c-0.1,0-0.3,0-0.4,0.1l0.1-0.8c0.3,0,0.4-0.1,0.6-0.2c0.1-0.1,0.2-0.3,0.2-0.5
			c0-0.2,0-0.3-0.1-0.4c-0.1-0.1-0.2-0.2-0.4-0.2c-0.2,0-0.3,0.1-0.4,0.2c-0.1,0.1-0.2,0.3-0.2,0.5l-0.9-0.2
			c0.1-0.3,0.2-0.6,0.3-0.7c0.1-0.2,0.3-0.3,0.5-0.4c0.2-0.1,0.5-0.2,0.7-0.2c0.5,0,0.8,0.2,1.1,0.5c0.2,0.2,0.3,0.5,0.3,0.8
			c0,0.4-0.2,0.8-0.7,1.1c0.3,0.1,0.5,0.2,0.7,0.4c0.2,0.2,0.3,0.5,0.3,0.8c0,0.4-0.2,0.8-0.5,1.1c-0.3,0.3-0.7,0.5-1.2,0.5
			c-0.4,0-0.8-0.1-1.1-0.4C15.2,59.6,15,59.3,15,58.8"/>
		<path d="M20.4,55.1c0.5,0,0.8,0.2,1.1,0.5c0.3,0.4,0.5,1.1,0.5,2.1c0,1-0.2,1.6-0.5,2.1c-0.3,0.3-0.6,0.5-1.1,0.5
			c-0.5,0-0.9-0.2-1.1-0.6c-0.3-0.4-0.4-1.1-0.4-2c0-1,0.2-1.6,0.5-2.1C19.6,55.3,19.9,55.1,20.4,55.1 M20.4,55.9
			c-0.1,0-0.2,0-0.3,0.1c-0.1,0.1-0.2,0.2-0.2,0.4c-0.1,0.3-0.1,0.7-0.1,1.3c0,0.6,0,1,0.1,1.2c0.1,0.2,0.1,0.4,0.2,0.4
			c0.1,0.1,0.2,0.1,0.3,0.1c0.1,0,0.2,0,0.3-0.1c0.1-0.1,0.2-0.2,0.2-0.4c0.1-0.2,0.1-0.7,0.1-1.3c0-0.6,0-1-0.1-1.2
			c-0.1-0.2-0.1-0.4-0.2-0.4C20.6,55.9,20.5,55.9,20.4,55.9"/>
		<path d="M22.7,56.5h0.9V57c0.3-0.4,0.7-0.6,1.1-0.6c0.2,0,0.4,0,0.6,0.1c0.2,0.1,0.3,0.2,0.4,0.4c0.2-0.2,0.3-0.3,0.5-0.4
			c0.2-0.1,0.4-0.1,0.6-0.1c0.3,0,0.5,0.1,0.7,0.2c0.2,0.1,0.3,0.3,0.4,0.5c0.1,0.2,0.1,0.4,0.1,0.8v2.3H27v-2.1
			c0-0.4,0-0.6-0.1-0.7c-0.1-0.1-0.2-0.2-0.4-0.2c-0.1,0-0.3,0-0.4,0.1c-0.1,0.1-0.2,0.2-0.2,0.4c-0.1,0.2-0.1,0.4-0.1,0.8v1.8h-0.9
			v-2c0-0.4,0-0.6,0-0.7c0-0.1-0.1-0.2-0.2-0.2c-0.1-0.1-0.2-0.1-0.3-0.1c-0.1,0-0.3,0-0.4,0.1c-0.1,0.1-0.2,0.2-0.2,0.3
			c0,0.2-0.1,0.4-0.1,0.8v1.8h-0.9V56.5z"/>
	</g>
	<rect x="35.7" y="52" width="11.7" height="1.4"/>
	<polygon points="46.5,52.6 46.5,54.7 47.4,53.6 48.4,52.6 47.4,51.5 46.5,50.5 	"/>
	<rect x="16.3" y="52" width="11.7" height="1.4"/>
	<polygon points="17.2,52.6 17.2,50.5 16.3,51.5 15.3,52.6 16.3,53.6 17.2,54.7 	"/>
	<g>
		<path d="M34.9,43.7v9.4h-6.2v-9.4c-0.1,0-0.2,0-0.3,0c-0.7,0-1.1-0.5-1.1-1.2c0-1.1,0-2.2,0-3.4c0-1,0-1.9,0-2.9
			c0-0.8,0.4-1.3,1.2-1.3c2.2,0,4.5,0,6.7,0c0.8,0,1.2,0.5,1.2,1.3c0,2,0,4.1,0,6.1c0,0.9-0.4,1.3-1.2,1.3
			C35.1,43.7,35,43.7,34.9,43.7"/>
		<path d="M29.5,31.6c0-1.4,1.1-2.6,2.4-2.6c1.4,0,2.5,1.2,2.4,2.6c0,1.4-1.1,2.5-2.4,2.5C30.5,34.1,29.5,33,29.5,31.6"/>
		<path d="M48.1,7.6L48.1,7.6L48.1,7.6z M31.9,45.9c5.2,0,12.7,0.7,16.2,2.5V7.6c-0.4-0.7-5-2.3-16.2-2.3c-11.2,0-15.8,1.5-16.2,2.3
			c0,1.3,0,31.8,0,40.6C20.3,45.9,31.3,45.9,31.9,45.9 M49.1,51.7c-0.5,0-1-0.4-1-0.9c-0.6-1-6.8-2.8-16.2-2.8
			c-11.3,0-15.9,2.1-16.2,2.7c0,0.5-0.5,1-1,1c-0.6,0-1-0.5-1-1c0,0,0-43,0-43.1c0-1.6,1.9-2.7,5.9-3.4c3.1-0.6,7.5-0.9,12.4-0.9
			s9.2,0.3,12.4,0.9c4,0.7,5.9,1.8,5.9,3.4v43.1C50.2,51.2,49.7,51.7,49.1,51.7"/>
		<path d="M15.8,7.5c1.2,0.8,6.6,2.1,16.1,2.1c9.4,0,14.8-1.3,16.1-2.1c-1.2-0.8-6.6-2.1-16.1-2.1C22.5,5.5,17.1,6.7,15.8,7.5
			 M31.9,11.7c-3.1,0-18.3-0.2-18.3-4.1c0-1.5,1.8-2.5,5.9-3.2c3.3-0.6,7.7-0.9,12.4-0.9c3.1,0,18.3,0.2,18.3,4.1
			c0,1.5-1.8,2.5-5.9,3.2C41,11.4,36.6,11.7,31.9,11.7"/>
		<path d="M33.7,17.3c-0.2,0.2-0.6,0.2-0.9,0l-0.9-0.9L31,17.3c-0.2,0.2-0.6,0.2-0.9,0c-0.2-0.2-0.2-0.6,0-0.9l0.9-0.9l-0.9-0.9
			c-0.2-0.2-0.2-0.6,0-0.9c0.2-0.2,0.6-0.2,0.9,0l0.9,0.9l0.9-0.9c0.2-0.2,0.6-0.2,0.9,0c0.2,0.2,0.2,0.6,0,0.9l-0.9,0.9l0.9,0.9
			C33.9,16.7,33.9,17.1,33.7,17.3"/>
		<path d="M60.1,22.3c-0.2-0.2-0.6-0.2-0.9,0l-2.2,2.2l-0.9-0.9c-0.2-0.2-0.6-0.2-0.9,0c-0.2,0.2-0.2,0.6,0,0.9l1.3,1.3
			c0.2,0.2,0.6,0.2,0.9,0l2.6-2.6C60.3,22.9,60.3,22.5,60.1,22.3"/>
		<path d="M8.3,22.3C8,22,7.6,22,7.4,22.3l-2.2,2.2l-0.9-0.9c-0.2-0.2-0.6-0.2-0.9,0c-0.2,0.2-0.2,0.6,0,0.9l1.3,1.3
			c0.2,0.2,0.6,0.2,0.9,0l2.6-2.6C8.5,22.9,8.5,22.5,8.3,22.3"/>
	</g>
</g>
<g>
	<path d="M2.2,27.4c-0.3,0-0.5,0.4-0.5,0.9h0.9C2.6,27.7,2.4,27.4,2.2,27.4"/>
	<path d="M9.3,27.4c-0.3,0-0.5,0.4-0.5,0.9h0.9C9.8,27.7,9.6,27.4,9.3,27.4"/>
	<path d="M11.2,28.3H7.5c-0.2,0-0.3,0.2-0.3,0.4c0,0.2,0.2,0.4,0.3,0.4h3.7c0.2,0,0.3-0.2,0.3-0.4C11.5,28.4,11.3,28.3,11.2,28.3"/>
	<path d="M4.4,28.7c0-0.2-0.2-0.4-0.3-0.4H0.3c-0.2,0-0.3,0.2-0.3,0.4c0,0.2,0.2,0.4,0.3,0.4H4C4.2,29.1,4.4,28.9,4.4,28.7"/>
	<path d="M6.8,33.3H4.7c-0.1,0-0.1,0.1-0.1,0.1v1.4c0,0.1,0.1,0.1,0.1,0.1h2.2c0.1,0,0.1-0.1,0.1-0.1v-1.4C7,33.3,6.9,33.3,6.8,33.3
		 M5.4,33.9H4.9v-0.3h0.5V33.9z M6.2,34.5c-0.2,0-0.4-0.2-0.4-0.4c0-0.2,0.2-0.4,0.4-0.4c0.2,0,0.4,0.2,0.4,0.4
		C6.6,34.3,6.4,34.5,6.2,34.5"/>
	<path d="M7.4,31.7c0.9,0.9,1.4,2.1,1.4,3.4l0,0.9c0,0.1,0,0.1,0.1,0.2c0,0,0.1,0.1,0.2,0.1h0.2c0.1,0,0.2-0.1,0.2-0.2l0-0.9
		c0-1.4-0.6-2.8-1.6-3.8C7.8,31.3,7.6,31.4,7.4,31.7"/>
	<path d="M3.6,31.3c-1,1-1.6,2.4-1.6,3.8V36c0,0.1,0.1,0.2,0.2,0.2h0.2c0.1,0,0.1,0,0.2-0.1c0,0,0.1-0.1,0.1-0.2l0-0.9
		c0-1.3,0.5-2.5,1.4-3.4C3.9,31.4,3.7,31.3,3.6,31.3"/>
	<path d="M8.9,29.4v0.6H8.7c-0.7,0-1.3-0.1-1.9-0.4c-0.3-0.2-0.7-0.3-1.1-0.3c-0.4,0-0.8,0.1-1.1,0.3c-0.6,0.3-1.2,0.4-1.9,0.4H2.6
		v-0.6H1.7l0,0.6c0,0.5,0.2,1,0.5,1c0.1,0,0.3-0.1,0.3-0.3h1C4,30.6,4.7,31,4.9,32c0,0.2,0.2,0.3,0.4,0.3h0v0.2H5.3c0,0,0,0,0,0v0.3
		h0.2h0.7h0.2v-0.3c0,0,0,0,0,0H6.1v-0.2h0c0.2,0,0.4-0.1,0.4-0.3C6.8,31,7.5,30.6,8,30.6h1c0.1,0.2,0.2,0.3,0.3,0.3
		c0.3,0,0.5-0.4,0.5-1l0-0.6H8.9z"/>
</g>
<g>
	<path d="M54.1,27.4c-0.3,0-0.5,0.4-0.5,0.9h0.9C54.6,27.7,54.4,27.4,54.1,27.4"/>
	<path d="M61.3,27.4c-0.3,0-0.5,0.4-0.5,0.9h0.9C61.7,27.7,61.5,27.4,61.3,27.4"/>
	<path d="M63.1,28.3h-3.7c-0.2,0-0.3,0.2-0.3,0.4c0,0.2,0.2,0.4,0.3,0.4h3.7c0.2,0,0.3-0.2,0.3-0.4C63.5,28.4,63.3,28.3,63.1,28.3"
		/>
	<path d="M56.3,28.7c0-0.2-0.2-0.4-0.3-0.4h-3.7c-0.2,0-0.3,0.2-0.3,0.4c0,0.2,0.2,0.4,0.3,0.4H56C56.2,29.1,56.3,28.9,56.3,28.7"/>
	<path d="M58.8,33.3h-2.2c-0.1,0-0.1,0.1-0.1,0.1v1.4c0,0.1,0.1,0.1,0.1,0.1h2.2c0.1,0,0.1-0.1,0.1-0.1v-1.4
		C58.9,33.3,58.9,33.3,58.8,33.3 M57.4,33.9h-0.5v-0.3h0.5V33.9z M58.1,34.5c-0.2,0-0.4-0.2-0.4-0.4c0-0.2,0.2-0.4,0.4-0.4
		c0.2,0,0.4,0.2,0.4,0.4C58.6,34.3,58.4,34.5,58.1,34.5"/>
	<path d="M59.4,31.7c0.9,0.9,1.4,2.1,1.4,3.4l0,0.9c0,0.1,0,0.1,0.1,0.2c0,0,0.1,0.1,0.2,0.1h0.2c0.1,0,0.2-0.1,0.2-0.2l0-0.9
		c0-1.4-0.6-2.8-1.6-3.8C59.7,31.3,59.5,31.4,59.4,31.7"/>
	<path d="M55.5,31.3c-1,1-1.6,2.4-1.6,3.8V36c0,0.1,0.1,0.2,0.2,0.2h0.2c0.1,0,0.1,0,0.2-0.1c0,0,0.1-0.1,0.1-0.2l0-0.9
		c0-1.3,0.5-2.5,1.4-3.4C55.9,31.4,55.7,31.3,55.5,31.3"/>
	<path d="M60.8,29.4v0.6h-0.2c-0.7,0-1.3-0.1-1.9-0.4c-0.3-0.2-0.7-0.3-1.1-0.3c-0.4,0-0.8,0.1-1.1,0.3c-0.6,0.3-1.2,0.4-1.9,0.4
		h-0.1v-0.6h-0.9l0,0.6c0,0.5,0.2,1,0.5,1c0.1,0,0.3-0.1,0.3-0.3h1c0.5,0,1.2,0.4,1.4,1.5c0,0.2,0.2,0.3,0.4,0.3h0v0.2h-0.1
		c0,0,0,0,0,0v0.3h0.2h0.7h0.2v-0.3c0,0,0,0,0,0h-0.1v-0.2h0c0.2,0,0.4-0.1,0.4-0.3c0.3-1.1,0.9-1.5,1.4-1.5h1
		c0.1,0.2,0.2,0.3,0.3,0.3c0.3,0,0.5-0.4,0.5-1l0-0.6H60.8z"/>
</g>
<g>
	<path d="M28.2,18.5c-0.3,0-0.5,0.4-0.5,0.9h0.9C28.7,18.9,28.5,18.5,28.2,18.5"/>
	<path d="M35.4,18.5c-0.3,0-0.5,0.4-0.5,0.9h0.9C35.8,18.9,35.6,18.5,35.4,18.5"/>
	<path d="M37.2,19.4h-3.7c-0.2,0-0.3,0.2-0.3,0.4c0,0.2,0.2,0.4,0.3,0.4h3.7c0.2,0,0.3-0.2,0.3-0.4C37.6,19.6,37.4,19.4,37.2,19.4"
		/>
	<path d="M30.4,19.9c0-0.2-0.2-0.4-0.3-0.4h-3.7c-0.2,0-0.3,0.2-0.3,0.4c0,0.2,0.2,0.4,0.3,0.4h3.7C30.3,20.3,30.4,20.1,30.4,19.9"
		/>
	<path d="M32.9,24.4h-2.2c-0.1,0-0.1,0.1-0.1,0.1V26c0,0.1,0.1,0.1,0.1,0.1h2.2c0.1,0,0.1-0.1,0.1-0.1v-1.4
		C33,24.5,33,24.4,32.9,24.4 M31.5,25.1H31v-0.3h0.5V25.1z M32.2,25.7c-0.2,0-0.4-0.2-0.4-0.4c0-0.2,0.2-0.4,0.4-0.4
		c0.2,0,0.4,0.2,0.4,0.4C32.7,25.5,32.5,25.7,32.2,25.7"/>
	<path d="M33.5,22.9c0.9,0.9,1.4,2.1,1.4,3.4l0,0.9c0,0.1,0,0.1,0.1,0.2c0,0,0.1,0.1,0.2,0.1h0.2c0.1,0,0.2-0.1,0.2-0.2l0-0.9
		c0-1.4-0.6-2.8-1.6-3.8C33.8,22.4,33.6,22.6,33.5,22.9"/>
	<path d="M29.6,22.4c-1,1-1.6,2.4-1.6,3.8v0.9c0,0.1,0.1,0.2,0.2,0.2h0.2c0.1,0,0.1,0,0.2-0.1c0,0,0.1-0.1,0.1-0.2l0-0.9
		c0-1.3,0.5-2.5,1.4-3.4C30,22.6,29.8,22.5,29.6,22.4"/>
	<path d="M34.9,20.5v0.6h-0.2c-0.7,0-1.3-0.1-1.9-0.4c-0.3-0.2-0.7-0.3-1.1-0.3c-0.4,0-0.8,0.1-1.1,0.3c-0.6,0.3-1.2,0.4-1.9,0.4
		h-0.1v-0.6h-0.9l0,0.6c0,0.5,0.2,1,0.5,1c0.1,0,0.3-0.1,0.3-0.3h1c0.5,0,1.2,0.4,1.4,1.5c0,0.2,0.2,0.3,0.4,0.3h0v0.2h-0.1
		c0,0,0,0,0,0v0.3h0.2h0.7h0.2v-0.3c0,0,0,0,0,0h-0.1v-0.2h0c0.2,0,0.4-0.1,0.4-0.3c0.3-1.1,0.9-1.5,1.4-1.5h1
		c0.1,0.2,0.2,0.3,0.3,0.3c0.3,0,0.5-0.4,0.5-1l0-0.6H34.9z"/>
</g>
</svg>
