<?xml version="1.0" encoding="utf-8"?>
<!-- Generator: Adobe Illustrator 23.0.2, SVG Export Plug-In . SVG Version: 6.00 Build 0)  -->
<svg version="1.1" id="Layer_1" xmlns="http://www.w3.org/2000/svg" xmlns:xlink="http://www.w3.org/1999/xlink" x="0px" y="0px"
	 viewBox="0 0 64 64" style="enable-background:new 0 0 64 64;" xml:space="preserve">
<style type="text/css">
	.st0{fill:none;stroke:#000000;stroke-width:5;}
</style>
<g>
	<path d="M35.3,3.9c-0.8-0.3-1.7,0.2-1.9,1l2.9,0.9C36.6,5,36.1,4.2,35.3,3.9"/>
	<path d="M58,11.1c-0.8-0.3-1.7,0.2-1.9,1L59,13C59.2,12.2,58.8,11.3,58,11.1"/>
	<path d="M62.9,15.9l-11.7-3.7c-0.6-0.2-1.2,0.2-1.4,0.8c-0.2,0.6,0.2,1.3,0.8,1.5l11.7,3.7c0.6,0.2,1.2-0.2,1.4-0.8
		C63.8,16.7,63.5,16.1,62.9,15.9"/>
	<path d="M41,10.2c0.2-0.6-0.2-1.3-0.8-1.5L28.6,5c-0.6-0.2-1.2,0.2-1.4,0.8C27,6.4,27.3,7,27.9,7.2l11.7,3.7
		C40.2,11.1,40.8,10.8,41,10.2"/>
	<path d="M54.5,17.2l-0.6,1.9h0l-0.5-0.2c-2.1-0.7-3.9-1.8-5.5-3.3c-0.9-0.9-2-1.5-3.2-1.9c-1.2-0.4-2.5-0.5-3.7-0.3
		c-2.1,0.4-4.3,0.2-6.4-0.4l-0.5-0.1l0.6-1.9l-2.9-0.9l-0.6,2c-0.5,1.8-0.3,3.4,0.5,3.6c0.4,0.1,1-0.2,1.4-0.8l3.1,1
		c1.6,0.5,3.3,2.4,3.1,6.3c0,0.7,0.4,1.3,1,1.6l2.3,0.7c0.7,0.2,1.4-0.1,1.7-0.7c2-3.3,4.4-3.9,6-3.4l3.1,1c0.1,0.8,0.3,1.3,0.8,1.5
		c0.8,0.3,1.9-1,2.4-2.7l0.6-2L54.5,17.2z"/>
	<path d="M45.9,31.6l-0.5,0.3c-4.1,2.2-9.1,0.6-11.2-3.6l-0.3-0.6c-0.3-0.6-1.1-0.9-1.7-0.6c-0.6,0.3-0.8,1-0.5,1.7l0.3,0.6
		c2.8,5.3,9.3,7.4,14.6,4.6l0.5-0.3c0.6-0.4,0.8-1.1,0.5-1.8C47.3,31.4,46.6,31.3,45.9,31.6"/>
	<path d="M44.4,29.8l0.5-0.3c0.5-0.3,0.8-1,0.5-1.6s-1-0.8-1.6-0.4l-0.5,0.3c-1.9,1-4.2,0.3-5.2-1.6l-0.3-0.5
		c-0.4-0.6-1-0.8-1.6-0.5c-0.6,0.3-0.7,1-0.5,1.6l0.3,0.5C37.7,30.2,41.4,31.4,44.4,29.8"/>
	<path d="M14.6,58.7c-3.7,0-7.3,0-9.5-0.2c-0.5,0-0.9-0.5-0.9-1c0-0.5,0.5-0.9,1-0.9c4.7,0.2,16.3,0.1,21.1,0c0,0,0,0,0,0
		c0.5,0,0.9,0.4,0.9,0.9c0,0.5-0.4,0.9-0.9,0.9C23.7,58.6,19.1,58.7,14.6,58.7"/>
	<path d="M9.4,54.9c-2,0-3.9-0.7-5.5-2c-1.4-1.2-2.5-2.9-3.1-4.7c-1.2-3.6-0.3-7.1,2.3-9c0.3-0.2,0.7-0.2,1,0
		c0.3,0.2,0.5,0.6,0.4,0.9c-0.2,1.3,0.8,2.1,1.7,2.7c-0.1-0.5-0.2-1.1-0.3-1.6c-0.6-3.3-1.4-7.4,4.3-10.3c0.3-0.2,0.7-0.1,1,0.1
		c0.3,0.2,0.4,0.6,0.3,0.9c-0.2,1,0,1.8,0.6,2.2c0.5,0.4,1.2,0.3,2-0.3c2.1-1.5,1.9-3.9,1.4-7.2c0-0.3,0.1-0.7,0.4-0.9
		c0.3-0.2,0.6-0.2,0.9-0.1c4.2,2.1,5.8,4.7,5.2,8.7c1.3-0.1,2.4-1,3-2.4c0.1-0.3,0.3-0.5,0.6-0.6c0.3-0.1,0.6,0,0.8,0.2
		c1.3,1.2,2,2.8,2,4.8c0,2.4-1,5.1-2.6,7.2c1.2-0.2,2.4-0.6,3-0.8l0.1,0c0.3-0.1,0.5,0,0.8,0.1c0.2,0.1,0.4,0.4,0.4,0.7
		c0.3,2.1-0.5,5.4-2.8,8c-1.4,1.5-3.7,3.4-7.3,3.4c0,0,0,0-0.1,0c-0.5,0-0.9-0.4-0.9-0.9c0-0.5,0.4-0.9,0.9-0.9c0,0,0,0,0.1,0
		c2.9,0,4.9-1.5,6-2.8c1.5-1.7,2.2-3.8,2.4-5.4c-1.3,0.4-3.2,0.8-4.7,0.5c-0.3-0.1-0.6-0.3-0.7-0.7c-0.1-0.3,0-0.7,0.3-0.9
		c2-1.8,3.5-4.9,3.5-7.4c0-1-0.2-1.8-0.6-2.5c-1.2,1.7-3.2,2.6-5.3,2.2c-0.2,0-0.5-0.2-0.6-0.4C20,35.4,20,35.2,20,34.9
		c0.7-3.3,0.1-5.2-2.4-6.9c0.2,2.5,0.1,5.4-2.4,7.2c-1.4,1-2.9,1.1-4,0.3c-0.8-0.5-1.3-1.3-1.4-2.3c-3,2.1-2.6,4.6-2,7.5
		c0.2,1.2,0.5,2.4,0.4,3.5c0,0.3-0.2,0.6-0.4,0.7c-0.2,0.2-0.5,0.2-0.8,0.1c-2-0.7-3.4-1.8-3.9-3.2c-0.3,0.5-0.6,1.1-0.7,1.8
		c-0.3,1.2-0.2,2.6,0.3,3.9c0.9,2.8,3.4,5.5,6.9,5.5c0,0,0,0,0.1,0c0.5,0,0.9,0.4,0.9,0.9C10.4,54.5,10,54.9,9.4,54.9
		C9.4,54.9,9.4,54.9,9.4,54.9"/>
	<path d="M14.1,52.7c-0.5,0-0.9-0.4-0.9-0.9c0-0.7-0.4-1.7-0.8-2.6c-1-2.3-2.4-5.5,0.7-8.6c0.3-0.3,0.6-0.3,1-0.2
		c0.3,0.1,0.6,0.5,0.6,0.8c0,0.4,0.2,1.2,0.6,1.5c0.1,0.1,0.3,0.2,0.6,0.1c0.8-0.1,1-2.3,1.1-3.3c0-0.2,0-0.3,0-0.5
		c0-0.5,0.4-0.8,0.8-0.8c0.4,0,0.8,0.3,0.9,0.7c0.1,0.6,0.5,1.2,0.8,2c0.6,1.3,1.3,2.8,1.1,4.2c-0.2,1.4-1.2,2.3-2,3.1
		c-0.4,0.3-0.7,0.6-1,1c-0.3,0.4-0.9,0.4-1.3,0.1c-0.4-0.3-0.4-0.9-0.1-1.3c0.4-0.4,0.8-0.8,1.1-1.2c0.7-0.7,1.3-1.2,1.4-2
		c0.1-0.6-0.2-1.5-0.6-2.3c-0.3,1-1,1.9-2.1,2.1c-0.8,0.1-1.5,0-2.1-0.5c-0.3-0.2-0.5-0.6-0.7-0.9c-0.8,1.7-0.1,3.4,0.7,5.2
		c0.5,1.2,1,2.3,1,3.4C15.1,52.3,14.7,52.7,14.1,52.7"/>
</g>
</svg>
