<?xml version="1.0" encoding="utf-8"?>
<!-- Generator: Adobe Illustrator 23.0.2, SVG Export Plug-In . SVG Version: 6.00 Build 0)  -->
<svg version="1.1" id="Layer_1" xmlns="http://www.w3.org/2000/svg" xmlns:xlink="http://www.w3.org/1999/xlink" x="0px" y="0px"
	 viewBox="0 0 64 64" style="enable-background:new 0 0 64 64;" xml:space="preserve">
<style type="text/css">
	.st0{fill:none;stroke:#000000;stroke-width:5;}
</style>
<g>
	<g>
		<path d="M30.3,4.8l-0.2-1.6c1.4-0.1,2.9-0.2,4.3-0.1l-0.1,1.6c-0.4,0-0.8,0-1.3,0C32.2,4.6,31.3,4.7,30.3,4.8 M40,5.5
			c-1.3-0.3-2.7-0.6-4-0.7l0.2-1.6C37.6,3.4,39,3.6,40.4,4L40,5.5z M24.8,6l-0.5-1.5c1.4-0.4,2.8-0.8,4.2-1L28.8,5
			C27.4,5.2,26.1,5.5,24.8,6 M45.3,7.5c-1.2-0.6-2.5-1.1-3.8-1.6L42,4.4c1.4,0.4,2.7,1,4,1.7L45.3,7.5z M19.7,8.3l-0.8-1.4
			c1.3-0.7,2.6-1.4,3.9-1.9l0.6,1.5C22.1,7,20.8,7.6,19.7,8.3 M50,10.6c-1.1-0.9-2.2-1.6-3.4-2.3l0.8-1.4c1.3,0.7,2.5,1.5,3.6,2.5
			L50,10.6z M15.1,11.6L14,10.4c1.1-1,2.2-1.9,3.4-2.7l0.9,1.3C17.2,9.8,16.1,10.7,15.1,11.6 M54.1,14.5c-0.9-1.1-1.8-2.1-2.8-3
			l1.1-1.2c1.1,1,2.1,2,3,3.1L54.1,14.5z M11.3,15.8L10,14.8c0.9-1.2,1.8-2.3,2.8-3.3l1.1,1.1C13,13.6,12.1,14.7,11.3,15.8
			 M57.2,19.2c-0.6-1.2-1.4-2.4-2.2-3.5l1.3-0.9c0.9,1.2,1.6,2.4,2.3,3.7L57.2,19.2z M8.5,20.7L7.1,20c0.6-1.3,1.3-2.6,2.1-3.8
			l1.3,0.9C9.7,18.2,9.1,19.4,8.5,20.7 M59.2,24.5c-0.4-1.3-0.8-2.6-1.4-3.9l1.4-0.6c0.6,1.3,1.1,2.7,1.5,4.1L59.2,24.5z M6.8,26
			l-1.5-0.3c0.3-1.4,0.7-2.8,1.2-4.2l1.5,0.6C7.4,23.4,7,24.7,6.8,26 M60.1,30.1c-0.1-1.4-0.3-2.7-0.5-4.1l1.5-0.3
			c0.3,1.4,0.5,2.9,0.6,4.3L60.1,30.1z M6.2,31.8H4.6l0-0.1c0-1.5,0.1-2.9,0.3-4.3l1.6,0.2c-0.2,1.3-0.3,2.7-0.3,4.1V31.8z
			 M61.4,35.9l-1.6-0.2c0.2-1.3,0.3-2.7,0.3-4l0-0.1h1.6v0C61.8,33.1,61.7,34.5,61.4,35.9 M5.2,37.7c-0.3-1.4-0.5-2.9-0.6-4.3
			l1.6-0.1c0.1,1.4,0.3,2.7,0.6,4.1L5.2,37.7z M59.9,41.7l-1.5-0.6c0.5-1.3,0.9-2.6,1.1-3.9l1.5,0.3C60.9,39,60.5,40.4,59.9,41.7
			 M7.1,43.4c-0.6-1.3-1.1-2.7-1.5-4.1l1.5-0.4c0.4,1.3,0.8,2.6,1.4,3.9L7.1,43.4z M57.3,47.1l-1.3-0.9c0.7-1.2,1.4-2.4,1.9-3.6
			l1.4,0.6C58.7,44.5,58,45.8,57.3,47.1 M53.5,51.7l-1.1-1.1c1-1,1.9-2,2.7-3.1l1.3,0.9C55.5,49.6,54.5,50.7,53.5,51.7 M48.9,55.5
			L48,54.2c1.1-0.8,2.2-1.6,3.2-2.5l1.1,1.2C51.3,53.8,50.1,54.7,48.9,55.5 M19,56.5c-1.3-0.7-2.5-1.5-3.6-2.4l1-1.2
			c1.1,0.9,2.2,1.6,3.4,2.3L19,56.5z M43.6,58.3L43,56.8c1.3-0.5,2.5-1.1,3.7-1.8l0.8,1.4C46.3,57.1,45,57.7,43.6,58.3 M24.4,58.9
			c-1.4-0.4-2.7-1-4-1.6l0.7-1.4c1.2,0.6,2.5,1.1,3.8,1.6L24.4,58.9z M37.9,59.9l-0.3-1.6c1.3-0.2,2.7-0.6,4-1l0.5,1.5
			C40.7,59.3,39.3,59.6,37.9,59.9 M30.3,60.1c-1.4-0.1-2.9-0.4-4.3-0.8l0.4-1.5c1.3,0.3,2.7,0.6,4,0.7L30.3,60.1z M33.2,60.2
			c-0.4,0-0.9,0-1.3,0l0.1-1.6c1.4,0.1,2.8,0,4.1-0.1l0.2,1.6C35.2,60.2,34.2,60.2,33.2,60.2"/>
		<path d="M2.2,49.8l1.5-0.2c0,0.3,0.2,0.6,0.4,0.8c0.2,0.2,0.4,0.3,0.7,0.3c0.3,0,0.6-0.1,0.8-0.4c0.2-0.2,0.3-0.6,0.3-1.1
			c0-0.5-0.1-0.8-0.3-1.1c-0.2-0.2-0.5-0.4-0.8-0.4c-0.4,0-0.8,0.2-1.1,0.6l-1.2-0.2l0.7-4H7v1.4H4.3L4,46.9c0.3-0.2,0.7-0.2,1-0.2
			c0.6,0,1.2,0.2,1.6,0.7c0.4,0.5,0.7,1.1,0.7,1.8c0,0.6-0.2,1.2-0.5,1.7c-0.5,0.7-1.2,1-2.1,1c-0.7,0-1.3-0.2-1.7-0.6
			C2.6,50.9,2.3,50.4,2.2,49.8"/>
	</g>
	<rect x="8.4" y="50.3" width="2" height="2"/>
	<g>
		<path d="M11.1,49.8l1.5-0.2c0,0.3,0.2,0.6,0.4,0.8c0.2,0.2,0.4,0.3,0.7,0.3c0.3,0,0.6-0.1,0.8-0.4c0.2-0.2,0.3-0.6,0.3-1.1
			c0-0.5-0.1-0.8-0.3-1.1c-0.2-0.2-0.5-0.4-0.8-0.4c-0.4,0-0.8,0.2-1.1,0.6l-1.2-0.2l0.7-4h3.9v1.4h-2.8l-0.2,1.3
			c0.3-0.2,0.7-0.2,1-0.2c0.6,0,1.2,0.2,1.6,0.7c0.4,0.5,0.7,1.1,0.7,1.8c0,0.6-0.2,1.2-0.5,1.7c-0.5,0.7-1.2,1-2.1,1
			c-0.7,0-1.3-0.2-1.7-0.6C11.5,50.9,11.2,50.4,11.1,49.8"/>
	</g>
	<polygon points="17.3,51.7 17.3,44.1 18.7,44.1 18.7,48.1 20.4,46.2 22.2,46.2 20.3,48.2 22.4,51.7 20.8,51.7 19.4,49.2 18.7,49.9 
		18.7,51.7 	"/>
	<g>
		<path d="M23.1,46.2h1.3v0.8c0.5-0.6,1.1-0.9,1.7-0.9c0.4,0,0.7,0.1,0.9,0.2c0.3,0.1,0.5,0.4,0.6,0.7c0.2-0.3,0.5-0.5,0.8-0.7
			c0.3-0.1,0.6-0.2,0.9-0.2c0.4,0,0.7,0.1,1,0.2c0.3,0.2,0.5,0.4,0.6,0.7c0.1,0.2,0.1,0.6,0.1,1.1v3.5h-1.5v-3.2
			c0-0.5-0.1-0.9-0.2-1.1c-0.1-0.2-0.3-0.3-0.6-0.3c-0.2,0-0.4,0.1-0.6,0.2c-0.2,0.1-0.3,0.3-0.4,0.5c-0.1,0.2-0.1,0.6-0.1,1.1v2.6
			h-1.5v-3c0-0.5,0-0.9-0.1-1s-0.1-0.3-0.2-0.3c-0.1-0.1-0.3-0.1-0.4-0.1c-0.2,0-0.4,0.1-0.6,0.2c-0.2,0.1-0.3,0.3-0.4,0.5
			c-0.1,0.2-0.1,0.6-0.1,1.1v2.7h-1.5V46.2z"/>
	</g>
	<rect x="34.2" y="44.1" width="15.3" height="7.6"/>
	<g>
		<path d="M34,13.7c2.3-1.3,3.8-3.2,3.2-4.2c-0.6-1-3-0.6-5.2,0.7l-2.8,1.6l-8.7-1.3l-2.4,1.4l5.8,3l-3.1,1.8l-3.3-1.2L16,16.4
			l2.8,2.8c0,0,4.5,0.7,9.5-2.2L34,13.7z"/>
		<path d="M34.6,25.8h14.7l-3.1,7.7h-8.4L34.6,25.8z M30.4,33.4c-0.4,0-0.7,0.3-0.7,0.7v7.6c0,0.4,0.3,0.7,0.7,0.7h23
			c0.4,0,0.7-0.3,0.7-0.7v-7.6c0-0.4-0.3-0.7-0.7-0.7h-3.2l3.1-7.7c0-0.1,0.1-0.2,0.1-0.3v-5.1c0-0.4-0.3-0.7-0.7-0.7h-5.4v-7.5
			c0-0.6-0.5-1.1-1.1-1.1S45,11.6,45,12.2v7.5H31.1c-0.4,0-0.7,0.3-0.7,0.7v5.1c0,0.1,0,0.2,0.1,0.3l3.1,7.6H30.4z"/>
	</g>
</g>
</svg>
