<?xml version="1.0" encoding="utf-8"?>
<!-- Generator: Adobe Illustrator 23.0.2, SVG Export Plug-In . SVG Version: 6.00 Build 0)  -->
<svg version="1.1" id="Layer_1" xmlns="http://www.w3.org/2000/svg" xmlns:xlink="http://www.w3.org/1999/xlink" x="0px" y="0px"
	 viewBox="0 0 64 64" style="enable-background:new 0 0 64 64;" xml:space="preserve">
<style type="text/css">
	.st0{fill:none;stroke:#000000;stroke-width:5;}
</style>
<g>
	<path d="M44.6,33c0-6.6-5.3-12-11.9-12c-6.6,0-12,5.3-12,11.9c0,6.6,5.3,12,11.9,12C39.3,44.9,44.6,39.6,44.6,33 M33.7,49.7
		c-7.7,0-13.2-2.2-18.4-5.6C11.4,41.4,8,38.1,5,34.6c-0.8-1-0.9-2.1-0.1-3.1c5.6-6.4,12-11.6,20.3-14.1c8.3-2.5,16-1.1,23.3,3.4
		c4.5,2.7,8.3,6.2,11.7,10.2c1.1,1.2,1.1,2.8,0.1,3.9C55,40.7,49,45.5,41.6,48.1C38.6,49.2,35.5,49.7,33.7,49.7"/>
	<path d="M27.5,32.6c0,0.9,0.4,1.5,1.1,1.6c0.8,0.1,1.3-0.4,1.4-1.4c0.2-1.5,1.1-2.4,2.6-2.6c0.9-0.1,1.4-0.6,1.3-1.3
		c-0.1-0.7-0.7-1.2-1.5-1.1C29.8,27.8,27.6,30,27.5,32.6 M32.7,41.4c-4.6,0-8.4-3.8-8.4-8.4c0-4.7,3.8-8.4,8.4-8.4
		c4.7,0,8.5,3.8,8.5,8.4C41.1,37.6,37.3,41.4,32.7,41.4"/>
</g>
</svg>
