<?xml version="1.0" encoding="utf-8"?>
<!-- Generator: Adobe Illustrator 23.0.2, SVG Export Plug-In . SVG Version: 6.00 Build 0)  -->
<svg version="1.1" id="Layer_1" xmlns="http://www.w3.org/2000/svg" xmlns:xlink="http://www.w3.org/1999/xlink" x="0px" y="0px"
	 viewBox="0 0 64 64" style="enable-background:new 0 0 64 64;" xml:space="preserve">
<style type="text/css">
	.st0{fill:none;stroke:#000000;stroke-width:5;}
</style>
<g>
	<path d="M13.9,9.6c-1.3,0-2.3,1-2.3,2.3h4.7C16.2,10.6,15.2,9.6,13.9,9.6"/>
	<path d="M50.1,9.6c-1.3,0-2.3,1-2.3,2.3h4.7C52.4,10.6,51.4,9.6,50.1,9.6"/>
	<path d="M59.5,14.1H40.8c-1,0-1.7,0.8-1.7,1.7c0,0.9,0.8,1.7,1.7,1.7h18.6c1,0,1.7-0.8,1.7-1.7C61.2,14.9,60.4,14.1,59.5,14.1"/>
	<path d="M24.9,15.8c0-0.9-0.8-1.7-1.7-1.7H4.5c-1,0-1.7,0.8-1.7,1.7c0,0.9,0.8,1.7,1.7,1.7h18.6C24.2,17.5,24.9,16.7,24.9,15.8"/>
	<path d="M34.2,45.9c-1.2,0-2.2-1-2.2-2.1s1-2.1,2.2-2.1c1.2,0,2.2,1,2.2,2.1S35.4,45.9,34.2,45.9 M30.3,42.8h-2.7v-1.6h2.7V42.8z
		 M37.5,39.6H26.5c-0.3,0-0.6,0.3-0.6,0.6v7.3c0,0.3,0.3,0.6,0.6,0.6h11.1c0.3,0,0.6-0.3,0.6-0.6v-7.3
		C38.1,39.8,37.9,39.6,37.5,39.6"/>
	<path d="M40.5,31.6c4.7,4.7,7.3,10.8,7.3,17.4l0,4.4c0,0.3,0.1,0.6,0.3,0.8c0.2,0.2,0.5,0.3,0.8,0.3h1.2c0.6,0,1.2-0.5,1.2-1.1
		l0-4.4c0-7.3-2.9-14.2-8.1-19.5C42.4,29.5,41.3,30.1,40.5,31.6"/>
	<path d="M20.9,29.4c-5.2,5.3-8.1,12.2-8.1,19.5l0,4.4c0,0.6,0.5,1.1,1.2,1.1h1.2c0.3,0,0.6-0.1,0.8-0.3c0.2-0.2,0.3-0.5,0.3-0.8
		l0-4.4c0-6.5,2.5-12.6,7.2-17.3C22.7,30.2,21.8,29.5,20.9,29.4"/>
	<path d="M47.8,19.7v2.8h0H47c-3.3,0-6.5-0.8-9.5-2.2c-1.7-0.8-3.5-1.3-5.5-1.3c-2,0-3.9,0.5-5.5,1.3c-2.9,1.4-6.2,2.2-9.5,2.2h-0.7
		v-2.8h-4.7l0,3.1c0,2.7,1,4.9,2.3,4.9c0.7,0,1.3-0.7,1.8-1.7h5c2.6,0,5.9,1.9,7.3,7.4c0.2,1,1.2,1.7,2.2,1.7h0.1v1.1h-0.6
		c-0.1,0-0.2,0.1-0.2,0.2v1.5h0.9h3.5h0.9v-1.5c0-0.1-0.1-0.2-0.2-0.2h-0.6v-1.1h0.1c1.1,0,2-0.7,2.2-1.7c1.4-5.5,4.6-7.4,7.2-7.4h5
		c0.4,1,1.1,1.7,1.8,1.7c1.3,0,2.3-2.2,2.3-4.9l0-3.1H47.8z"/>
</g>
</svg>
