<svg width="756" height="567" xmlns="http://www.w3.org/2000/svg" xmlns:xlink="http://www.w3.org/1999/xlink" overflow="hidden"><g><rect x="0" y="0" width="756" height="566.875" fill="#FFFFFF"/><rect x="92" y="21.9952" width="122" height="41.9908" stroke="#000000" stroke-width="2.00044" stroke-miterlimit="8" fill="#FFFFFF"/><text font-family="Arial Nova,Arial,sans-serif" font-weight="400" font-size="24" transform="matrix(1 0 0 0.99978 123.764 51)">Entity</text><rect x="68" y="89.9802" width="170" height="41.9908" fill="#FFFFFF"/><path d="M64.9993 86.9802 241.001 86.9802 241.001 134.971 64.9993 134.971ZM66.9998 132.971 239 132.971 239 88.9802 66.9998 88.9802ZM69.0002 90.9802 237 90.9802 237 130.971 69.0002 130.971ZM71.0006 128.971 234.999 128.971 234.999 92.9802 71.0006 92.9802Z"/><text font-family="Arial Nova,Arial,sans-serif" font-weight="400" font-size="24" transform="matrix(1 0 0 0.99978 91.6333 120)">Weak entity</text><path d="M74 196.957 153.5 157.965 233 196.957 153.5 235.948Z" stroke="#000000" stroke-width="2.00044" stroke-miterlimit="8" fill="#FFFFFF" fill-rule="evenodd"/><text font-family="Arial Nova,Arial,sans-serif" font-weight="400" font-size="19" transform="matrix(1 0 0 0.99978 105.95 204)">relationship</text><path d="M56 308.932 153 259.943 250 308.932 153 357.921Z" fill="#FFFFFF" fill-rule="evenodd"/><path d="M49.345 308.932 153 256.582 256.655 308.932 153 361.282ZM153 359.041 252.218 308.932 153 258.822 53.7816 308.932ZM58.2183 308.932 153 261.063 247.782 308.932 153 356.801ZM153 354.56 243.345 308.932 153 263.304 62.6549 308.932Z"/><text font-family="Arial Nova,Arial,sans-serif" font-weight="400" font-size="19" transform="matrix(1 0 0 0.99978 111.104 305)">identifying</text><text font-family="Arial Nova,Arial,sans-serif" font-weight="400" font-size="19" transform="matrix(1 0 0 0.99978 105.95 328)">relationship</text><path d="M394 62.4862C394 51.7191 423.102 42.9906 459 42.9906 494.899 42.9906 524 51.7191 524 62.4862 524 73.2534 494.899 81.9819 459 81.9819 423.102 81.9819 394 73.2534 394 62.4862Z" stroke="#000000" stroke-width="2.00044" stroke-miterlimit="8" fill="#FFFFFF" fill-rule="evenodd"/><text font-family="Arial Nova,Arial,sans-serif" font-weight="400" font-size="19" transform="matrix(1 0 0 0.99978 424.706 69)">attribute</text><path d="M383 136.97C383 120.405 417.026 106.976 459 106.976 500.974 106.976 535 120.405 535 136.97 535 153.535 500.974 166.963 459 166.963 417.026 166.963 383 153.535 383 136.97Z" fill="#FFFFFF" fill-rule="evenodd"/><path d="M379.975 136.97 380.462 133.161 381.858 129.551 384.042 126.199 386.912 123.105 390.399 120.248 394.459 117.611 399.055 115.185 404.154 112.971 409.725 110.973 415.733 109.2 422.143 107.663 428.954 106.368 443.441 104.593 459 103.974 474.559 104.593 489.046 106.368 495.857 107.663 502.267 109.2 508.275 110.973 513.846 112.971 518.945 115.185 523.541 117.611 527.601 120.248 531.088 123.105 533.958 126.199 536.142 129.551 537.538 133.161 538.025 136.97 537.538 140.778 536.142 144.389 533.958 147.741 531.088 150.835 527.601 153.692 523.541 156.329 518.945 158.755 513.846 160.969 508.275 162.967 502.268 164.74 495.857 166.277 489.046 167.572 474.559 169.347 459 169.966 443.441 169.347 428.954 167.572 422.143 166.277 415.733 164.74 409.725 162.967 404.154 160.969 399.055 158.755 394.459 156.329 390.399 153.692 386.912 150.835 384.042 147.741 381.859 144.389 380.462 140.778ZM382.416 140.284 383.649 143.473 385.625 146.506 388.286 149.375 391.582 152.075 395.473 154.603 399.921 156.95 404.891 159.109 410.346 161.065 416.249 162.807 422.564 164.321 429.263 165.595 443.603 167.351 459 167.964 474.398 167.351 488.737 165.595 495.436 164.321 501.751 162.807 507.654 161.065 513.109 159.109 518.079 156.95 522.527 154.603 526.419 152.075 529.714 149.375 532.375 146.506 534.351 143.473 535.584 140.284 536.008 136.97 535.584 133.656 534.351 130.467 532.375 127.433 529.714 124.565 526.419 121.865 522.527 119.337 518.079 116.989 513.109 114.831 507.654 112.874 501.751 111.132 495.436 109.618 488.737 108.345 474.398 106.588 459 105.976 443.603 106.588 429.263 108.345 422.564 109.618 416.249 111.132 410.346 112.874 404.891 114.831 399.921 116.989 395.473 119.337 391.582 121.865 388.286 124.565 385.625 127.433 383.649 130.467 382.416 133.656 381.992 136.97ZM384.008 136.97 384.369 134.15 385.439 131.383 387.208 128.668 389.659 126.025 392.764 123.482 396.487 121.063 400.788 118.793 405.628 116.691 410.968 114.776 416.766 113.065 422.984 111.574 429.572 110.322 443.764 108.583 459 107.977 474.236 108.583 488.428 110.322 495.016 111.574 501.234 113.065 507.032 114.776 512.372 116.691 517.212 118.793 521.513 121.063 525.236 123.482 528.341 126.025 530.792 128.668 532.561 131.383 533.631 134.15 533.992 136.97 533.631 139.789 532.561 142.556 530.792 145.272 528.341 147.914 525.236 150.458 521.513 152.876 517.212 155.146 512.372 157.248 507.032 159.163 501.234 160.874 495.016 162.365 488.428 163.618 474.236 165.356 459 165.962 443.764 165.356 429.572 163.618 422.984 162.365 416.766 160.874 410.968 159.163 405.628 157.248 400.788 155.146 396.487 152.876 392.764 150.458 389.659 147.914 387.208 145.272 385.439 142.556 384.369 139.789ZM386.323 139.294 387.23 141.64 388.791 144.037 391.033 146.454 393.947 148.841 397.501 151.15 401.655 153.342 406.365 155.388 411.589 157.261 417.283 158.942 423.404 160.409 429.881 161.64 443.926 163.361 459 163.961 474.074 163.361 488.119 161.64 494.596 160.409 500.717 158.942 506.411 157.261 511.635 155.388 516.345 153.342 520.5 151.15 524.053 148.841 526.967 146.454 529.209 144.037 530.77 141.64 531.677 139.294 531.975 136.97 531.677 134.645 530.77 132.3 529.209 129.903 526.967 127.485 524.053 125.099 520.5 122.79 516.345 120.597 511.635 118.552 506.411 116.678 500.717 114.998 494.596 113.53 488.119 112.299 474.074 110.578 459 109.979 443.926 110.578 429.881 112.299 423.404 113.53 417.283 114.998 411.589 116.678 406.365 118.552 401.655 120.597 397.501 122.79 393.947 125.099 391.033 127.485 388.791 129.903 387.23 132.3 386.323 134.645 386.025 136.97Z"/><text font-family="Arial Nova,Arial,sans-serif" font-weight="400" font-size="19" transform="matrix(1 0 0 0.99978 412.01 133)">multivalued</text><text font-family="Arial Nova,Arial,sans-serif" font-weight="400" font-size="19" transform="matrix(1 0 0 0.99978 424.706 156)">attribute</text><path d="M393 306.932C393 290.367 422.325 276.939 458.5 276.939 494.675 276.939 524 290.367 524 306.932 524 323.497 494.675 336.926 458.5 336.926 422.325 336.926 393 323.497 393 306.932Z" stroke="#000000" stroke-width="2.00044" stroke-miterlimit="8" stroke-dasharray="8.00176 6.00132" fill="#FFFFFF" fill-rule="evenodd"/><text font-family="Arial Nova,Arial,sans-serif" font-weight="400" font-size="19" transform="matrix(1 0 0 0.99978 428.221 302)">derived</text><text font-family="Arial Nova,Arial,sans-serif" font-weight="400" font-size="19" transform="matrix(1 0 0 0.99978 424.706 325)">attribute</text><path d="M393.709 61.9865 351 61.9864" stroke="#000000" stroke-width="2.00044" stroke-miterlimit="8" fill="#FFFFFF" fill-rule="evenodd"/><path d="M0 0 42.6991 0.000104987" stroke="#000000" stroke-width="2" stroke-miterlimit="8" fill="#FFFFFF" fill-rule="evenodd" transform="matrix(-1.00022 0 0 1 382.709 136.97)"/><path d="M0 0 42.6992 0.000104987" stroke="#000000" stroke-width="2" stroke-miterlimit="8" stroke-dasharray="8 6" fill="#FFFFFF" fill-rule="evenodd" transform="matrix(-1.00022 0 0 1 393.709 306.932)"/><path d="M394 221.951C394 205.386 423.102 191.958 459 191.958 494.899 191.958 524 205.386 524 221.951 524 238.516 494.899 251.944 459 251.944 423.102 251.944 394 238.516 394 221.951Z" stroke="#000000" stroke-width="2.00044" stroke-miterlimit="8" fill="#FFFFFF" fill-rule="evenodd"/><text font-family="Arial Nova,Arial,sans-serif" font-weight="400" font-size="19" transform="matrix(1 0 0 0.99978 416.234 218)">composite</text><text font-family="Arial Nova,Arial,sans-serif" font-weight="400" font-size="19" transform="matrix(1 0 0 0.99978 424.703 241)">attribute</text><path d="M0 0 43.1938 0.000104987" stroke="#000000" stroke-width="2" stroke-miterlimit="8" fill="#FFFFFF" fill-rule="evenodd" transform="matrix(-1.00022 0 0 1 394.203 221.951)"/><path d="M0 0 119.87 34.4584" stroke="#000000" stroke-width="2" stroke-miterlimit="8" fill="#FFFFFF" fill-rule="evenodd" transform="matrix(1.00022 0 0 -1 505 201.422)"/><path d="M558 179.46C558 169.245 575.461 160.965 597 160.965 618.539 160.965 636 169.245 636 179.46 636 189.675 618.539 197.956 597 197.956 575.461 197.956 558 189.675 558 179.46Z" stroke="#000000" stroke-width="2.00044" stroke-miterlimit="8" fill="#FFFFFF" fill-rule="evenodd"/><text font-family="Arial Nova,Arial,sans-serif" font-weight="400" font-size="19" transform="matrix(1 0 0 0.99978 580.37 186)">part</text><path d="M558 221.951C558 212.012 575.461 203.955 597 203.955 618.539 203.955 636 212.012 636 221.951 636 231.89 618.539 239.947 597 239.947 575.461 239.947 558 231.89 558 221.951Z" stroke="#000000" stroke-width="2.00044" stroke-miterlimit="8" fill="#FFFFFF" fill-rule="evenodd"/><text font-family="Arial Nova,Arial,sans-serif" font-weight="400" font-size="19" transform="matrix(1 0 0 0.99978 580.37 229)">part</text><path d="M524 221.951 557.822 221.951" stroke="#000000" stroke-width="2.00044" stroke-miterlimit="8" fill="#FFFFFF" fill-rule="evenodd"/><path d="M505 242.946 624.896 277.405" stroke="#000000" stroke-width="2.00044" stroke-miterlimit="8" fill="#FFFFFF" fill-rule="evenodd"/><path d="M558 264.442C558 254.227 575.461 245.946 597 245.946 618.539 245.946 636 254.227 636 264.442 636 274.657 618.539 282.938 597 282.938 575.461 282.938 558 274.657 558 264.442Z" stroke="#000000" stroke-width="2.00044" stroke-miterlimit="8" fill="#FFFFFF" fill-rule="evenodd"/><text font-family="Arial Nova,Arial,sans-serif" font-weight="400" font-size="19" transform="matrix(1 0 0 0.99978 580.37 271)">part</text><rect x="31" y="392.913" width="53" height="41.9908" stroke="#000000" stroke-width="2.00044" stroke-miterlimit="8" fill="#FFFFFF"/><text font-family="Times New Roman,serif" font-style="italic" font-weight="400" font-size="25" transform="matrix(1 0 0 0.99978 50.0822 423)">A</text><rect x="222" y="392.913" width="53.9999" height="41.9908" stroke="#000000" stroke-width="2.00044" stroke-miterlimit="8" fill="#FFFFFF"/><text font-family="Times New Roman,serif" font-style="italic" font-weight="400" font-size="25" transform="matrix(1 0 0 0.99978 241.135 423)">B</text><path d="M0 0 37.545 0.000104987" stroke="#000000" stroke-width="2" stroke-miterlimit="8" fill="#FFFFFF" fill-rule="evenodd" transform="matrix(1.00022 0 0 -1 84 413.909)"/><path d="M149 413.909 222.396 413.909" fill="#FFFFFF" fill-rule="evenodd"/><path d="M149 410.909 222.396 410.909 222.396 412.909 149 412.909ZM149 414.909 222.396 414.909 222.396 416.909 149 416.909Z"/><path d="M122 414.409 153.5 387.914 185 414.409 153.5 440.903Z" stroke="#000000" stroke-width="2.00044" stroke-miterlimit="8" fill="#FFFFFF" fill-rule="evenodd"/><text font-family="Times New Roman,serif" font-style="italic" font-weight="400" font-size="25" transform="matrix(1 0 0 0.99978 145.609 423)">R</text><text font-family="Arial Nova,Arial,sans-serif" font-weight="400" font-size="21" transform="matrix(1 0 0 0.99978 314.771 408)">Total participation of</text><text font-family="Times New Roman,serif" font-style="italic" font-weight="400" font-size="23" transform="matrix(1 0 0 0.99978 510.788 408)">B</text><text font-family="Arial Nova,Arial,sans-serif" font-weight="400" font-size="21" transform="matrix(1 0 0 0.99978 529.959 408)">in</text><text font-family="Times New Roman,serif" font-style="italic" font-weight="400" font-size="23" transform="matrix(1 0 0 0.99978 552.464 408)">R</text><text font-family="Cambria Math,Cambria Math_MSFontService,Arial,sans-serif" font-weight="400" font-size="21" transform="matrix(1 0 0 0.99978 314.771 435)">⇒</text><text font-family="Arial Nova,Arial,sans-serif" font-weight="400" font-size="21" transform="matrix(1 0 0 0.99978 339.11 435)">every</text><text font-family="Times New Roman,serif" font-style="italic" font-weight="400" font-size="23" transform="matrix(1 0 0 0.99978 396.496 435)">B</text><text font-family="Arial Nova,Arial,sans-serif" font-weight="400" font-size="21" transform="matrix(1 0 0 0.99978 416.167 435)">must be related to at least one</text><text font-family="Times New Roman,serif" font-style="italic" font-weight="400" font-size="23" transform="matrix(1 0 0 0.99978 705.871 435)">A</text><text font-family="Arial Nova,Arial,sans-serif" font-weight="400" font-size="21" transform="matrix(1 0 0 0.99978 314.771 490)">Cardinality constraint</text><text font-family="Times New Roman,serif" font-weight="400" font-size="23" transform="matrix(1 0 0 0.99978 520.09 490)">1:N</text><text font-family="Arial Nova,Arial,sans-serif" font-weight="400" font-size="21" transform="matrix(1 0 0 0.99978 559.932 490)">for</text><text font-family="Times New Roman,serif" font-style="italic" font-weight="400" font-size="23" transform="matrix(1 0 0 0.99978 591.066 490)">A</text><text font-family="Times New Roman,serif" font-weight="400" font-size="23" transform="matrix(1 0 0 0.99978 604.902 490)">:</text><text font-family="Times New Roman,serif" font-style="italic" font-weight="400" font-size="23" transform="matrix(1 0 0 0.99978 611.237 490)">B</text><text font-family="Arial Nova,Arial,sans-serif" font-weight="400" font-size="21" transform="matrix(1 0 0 0.99978 630.408 490)">in</text><text font-family="Times New Roman,serif" font-style="italic" font-weight="400" font-size="23" transform="matrix(1 0 0 0.99978 652.913 490)">R</text><text font-family="Cambria Math,Cambria Math_MSFontService,Arial,sans-serif" font-weight="400" font-size="21" transform="matrix(1 0 0 0.99978 314.771 517)">⇒</text><text font-family="Arial Nova,Arial,sans-serif" font-weight="400" font-size="21" transform="matrix(1 0 0 0.99978 339.11 517)">each</text><text font-family="Times New Roman,serif" font-style="italic" font-weight="400" font-size="23" transform="matrix(1 0 0 0.99978 390.788 517)">A</text><text font-family="Arial Nova,Arial,sans-serif" font-weight="400" font-size="21" transform="matrix(1 0 0 0.99978 410.459 517)">can be related to many</text><text font-family="Times New Roman,serif" font-style="italic" font-weight="400" font-size="23" transform="matrix(1 0 0 0.99978 631.941 517)">B</text><text font-family="Cambria Math,Cambria Math_MSFontService,Arial,sans-serif" font-weight="400" font-size="21" transform="matrix(1 0 0 0.99978 314.771 544)">⇒</text><text font-family="Arial Nova,Arial,sans-serif" font-weight="400" font-size="21" transform="matrix(1 0 0 0.99978 339.11 544)">each</text><text font-family="Times New Roman,serif" font-style="italic" font-weight="400" font-size="23" transform="matrix(1 0 0 0.99978 390.788 544)">B</text><text font-family="Arial Nova,Arial,sans-serif" font-weight="400" font-size="21" transform="matrix(1 0 0 0.99978 410.459 544)">can be related to one</text><text font-family="Times New Roman,serif" font-style="italic" font-weight="400" font-size="23" transform="matrix(1 0 0 0.99978 615.771 544)">A</text><rect x="31" y="473.896" width="53" height="42.9904" stroke="#000000" stroke-width="2.00044" stroke-miterlimit="8" fill="#FFFFFF"/><text font-family="Times New Roman,serif" font-style="italic" font-weight="400" font-size="25" transform="matrix(1 0 0 0.99978 50.0822 504)">A</text><rect x="222" y="473.896" width="53.9999" height="42.9904" stroke="#000000" stroke-width="2.00044" stroke-miterlimit="8" fill="#FFFFFF"/><text font-family="Times New Roman,serif" font-style="italic" font-weight="400" font-size="25" transform="matrix(1 0 0 0.99978 241.135 504)">B</text><path d="M0 0 37.545 0.000104987" stroke="#000000" stroke-width="2" stroke-miterlimit="8" fill="#FFFFFF" fill-rule="evenodd" transform="matrix(1.00022 0 0 -1 84 495.891)"/><path d="M149 495.891 222.396 495.891" stroke="#000000" stroke-width="2.00044" stroke-miterlimit="8" fill="#FFFFFF" fill-rule="evenodd"/><path d="M122 495.391 153.5 468.897 185 495.391 153.5 521.885Z" stroke="#000000" stroke-width="2.00044" stroke-miterlimit="8" fill="#FFFFFF" fill-rule="evenodd"/><text font-family="Times New Roman,serif" font-style="italic" font-weight="400" font-size="25" transform="matrix(1 0 0 0.99978 145.609 504)">R</text><text font-family="Times New Roman,serif" font-weight="400" font-size="21" transform="matrix(1 0 0 0.99978 186.012 488)">N</text></g></svg>